<svg version="1.1" height="12mm" width="40.4mm" xmlns="http://www.w3.org/2000/svg" xmlns:xlink="http://www.w3.org/1999/xlink" x="0px" y="0px"
				 viewBox="437.5 380.2 113.5 33.7" style="enable-background:new 437.5 380.2 113.5 33.7;" xml:space="preserve">
			<path style="fill:#F21C0A;" d="M470.3,413.1v0.4h-20.5V409h-4.1v4.5h-8.2v-12.7h4.1v-4.1h-4.1v-16.5h32.9v16.5c-4.5,0-8.2,3.7-8.2,8.2
				c0,2.3-1.8,4.1-4.1,4.1c-2.3,0-4.1-1.9-4.1-4.1h-4.1c0,4.5,3.7,8.2,8.2,8.2c2.5,0,4.7-1.1,6.2-2.8
				C465.6,412,467.8,413.1,470.3,413.1 M474.4,404.9h-4.1v4.1c-2.3,0-4.1-1.9-4.1-4.1s1.8-4.1,4.1-4.1S474.4,402.6,474.4,404.9
				 M441.5,409c4.5,0,8.2-3.7,8.2-8.2h-4.1c0,2.3-1.8,4.1-4.1,4.1V409z M449.8,396.7c0,4.5,3.7,8.2,8.2,8.2v-4.1
				c-2.3,0-4.1-1.8-4.1-4.1H449.8z"/>
			<path style="fill:#F21C0A;" d="M503.5,382.3c0,0.4-0.1,0.7-0.3,1.1c-2.9,6.7-11.1,19.5-15.5,25.3H502c1,0,1.6,0.6,1.6,1.6v1.6
				c0,1-0.6,1.6-1.6,1.6h-20.6c-1,0-1.6-0.6-1.6-1.6v-0.7c0-0.6,0.2-0.9,0.5-1.3c4.8-6.2,13.1-18.5,15.7-24.9h-13.9
				c-1,0-1.6-0.6-1.6-1.6v-1.6c0-1,0.6-1.6,1.6-1.6h19.7c1,0,1.6,0.6,1.6,1.6L503.5,382.3L503.5,382.3z"/>
			<path style="fill:#F21C0A;" d="M515.1,409h1.6c3.5,0,6-1.3,6-4.9c0-3-1.9-4-4.4-4.7l-4.8-1.3c-3.5-0.9-7.1-3.2-7.1-9.1c0-6,4.8-9.2,11.4-9.2
				h1.4c2,0,4.8,0.5,6.5,0.9c1,0.2,1.3,0.8,1.3,1.8v1.8c0,0.8-0.4,1.2-1.1,1.2c-0.2,0-0.4,0-0.5,0c-1.8-0.4-4.3-0.8-6.2-0.8h-1.3
				c-3.4,0-5.7,1.2-5.7,4.4c0,2.8,1.8,3.7,4.1,4.4l4.7,1.3c4.1,1.2,7.5,3.4,7.5,9.4c0,6.4-4.7,9.7-11.9,9.7H515c-2.4,0-6-0.7-7.6-1.1
				c-1-0.3-1.3-0.8-1.3-1.8v-1.9c0-0.8,0.4-1.2,1-1.2c0.2,0,0.4,0,0.6,0.1C509.3,408.4,512.6,409,515.1,409"/>
			<path style="fill:#F21C0A;" d="M539.5,413.5c-5.8,0-8.7-3.1-8.7-9v-22.7c0-1,0.6-1.6,1.6-1.6h16.7c1,0,1.6,0.6,1.6,1.6v1.6
				c0,1.1-0.6,1.6-1.6,1.6h-12.7v8.8h11.3c1,0,1.6,0.5,1.6,1.6v1.6c0,1-0.6,1.6-1.6,1.6h-11.3v5.5c0,3.2,1.3,4.6,4.1,4.6h8.9
				c1,0,1.6,0.5,1.6,1.6v1.6c0,1-0.6,1.6-1.6,1.6L539.5,413.5L539.5,413.5z"/>
			</svg>