<?xml version="1.0" encoding="UTF-8"?>
<svg xmlns="http://www.w3.org/2000/svg" xmlns:xlink="http://www.w3.org/1999/xlink" width="507pt" height="507pt" viewBox="0 0 507 507" version="1.1">
<defs>
<filter id="alpha" filterUnits="objectBoundingBox" x="0%" y="0%" width="100%" height="100%">
  <feColorMatrix type="matrix" in="SourceGraphic" values="0 0 0 0 1 0 0 0 0 1 0 0 0 0 1 0 0 0 1 0"/>
</filter>
<mask id="mask0">
  <g filter="url(#alpha)">
<rect x="0" y="0" width="507" height="507" style="fill:rgb(0%,0%,0%);fill-opacity:0.2;stroke:none;"/>
  </g>
</mask>
<clipPath id="clip1">
  <rect width="507" height="507"/>
</clipPath>
<g id="surface6" clip-path="url(#clip1)">
<path style=" stroke:none;fill-rule:nonzero;fill:rgb(0%,0%,0%);fill-opacity:1;" d="M 294.261719 499.972656 C 295.074219 499.785156 295.875 499.582031 296.675781 499.378906 C 297.390625 499.199219 298.09375 499.011719 298.808594 498.824219 C 298.84375 497.332031 298.898438 495.691406 298.949219 493.914062 C 299.390625 479.992188 300.433594 457.582031 302.894531 430.582031 C 303.03125 429.136719 303.164062 427.675781 303.300781 426.210938 C 304.175781 417.058594 305.203125 407.4375 306.433594 397.460938 C 306.472656 397.132812 306.515625 396.808594 306.554688 396.480469 C 307.550781 388.394531 308.683594 380.09375 309.960938 371.632812 C 310.851562 365.714844 311.816406 359.734375 312.855469 353.683594 C 312.929688 353.265625 313.003906 352.835938 313.078125 352.417969 C 313.378906 350.671875 313.6875 348.929688 314.003906 347.175781 C 314.878906 342.292969 315.816406 337.378906 316.800781 332.46875 C 320.257812 315.1875 324.375 297.800781 329.289062 280.890625 C 334.277344 263.351562 340.421875 246.160156 347.683594 229.433594 C 353.316406 216.4375 360.023438 203.9375 367.738281 192.058594 C 367.851562 191.886719 367.964844 191.722656 368.078125 191.550781 C 377.941406 176.691406 389.210938 164.085938 402.082031 154.65625 L 399.414062 151.011719 C 387.082031 160.050781 375.773438 172.074219 365.484375 187.085938 C 365.429688 187.164062 365.386719 187.230469 365.332031 187.304688 C 357.59375 198.78125 350.839844 210.886719 345.140625 223.5 C 337.511719 240.371094 331.078125 257.753906 325.882812 275.527344 C 320.960938 292.042969 316.550781 309.933594 312.644531 329.203125 C 311.273438 335.992188 309.960938 342.949219 308.714844 350.070312 C 308.503906 351.285156 308.296875 352.5 308.085938 353.722656 C 308.085938 353.738281 308.078125 353.761719 308.078125 353.773438 C 307.753906 355.648438 307.449219 357.523438 307.132812 359.421875 C 306.351562 364.199219 305.617188 368.941406 304.925781 373.640625 C 303.863281 380.886719 302.898438 388.007812 302.039062 395.003906 C 301.753906 397.3125 301.480469 399.605469 301.214844 401.878906 C 300.839844 405.089844 300.484375 408.257812 300.148438 411.382812 C 299.675781 415.734375 299.246094 419.988281 298.851562 424.15625 L 298.738281 425.300781 C 298.679688 425.960938 298.621094 426.621094 298.558594 427.273438 C 295.515625 460.117188 294.5625 486.644531 294.261719 499.972656 Z M 294.261719 499.972656 "/>
</g>
<mask id="mask1">
  <g filter="url(#alpha)">
<rect x="0" y="0" width="507" height="507" style="fill:rgb(0%,0%,0%);fill-opacity:0.2;stroke:none;"/>
  </g>
</mask>
<clipPath id="clip2">
  <rect width="507" height="507"/>
</clipPath>
<g id="surface9" clip-path="url(#clip2)">
<path style=" stroke:none;fill-rule:nonzero;fill:rgb(0%,0%,0%);fill-opacity:1;" d="M 351.757812 478.433594 C 351.839844 478.386719 351.929688 478.34375 352.011719 478.296875 C 353.558594 477.496094 355.085938 476.675781 356.617188 475.835938 C 357.121094 469.851562 357.796875 463.273438 358.679688 456.359375 C 358.867188 454.933594 359.054688 453.488281 359.265625 452.03125 C 359.371094 451.253906 359.484375 450.464844 359.59375 449.671875 C 360.480469 443.578125 361.53125 437.296875 362.789062 430.980469 C 367.914062 405.210938 376.417969 378.871094 390.539062 362.609375 C 391.296875 361.734375 392.070312 360.890625 392.871094 360.074219 C 394.859375 358.007812 397.019531 356.113281 399.328125 354.414062 L 396.660156 350.773438 C 393.4375 353.160156 390.472656 355.871094 387.808594 358.867188 C 386.871094 359.910156 385.957031 360.996094 385.066406 362.121094 C 372.066406 378.480469 363.953125 402.699219 358.898438 426.675781 C 357.578125 432.929688 356.46875 439.175781 355.523438 445.261719 C 355.28125 446.851562 355.050781 448.425781 354.832031 449.984375 C 353.371094 460.289062 352.402344 470.023438 351.757812 478.433594 Z M 351.757812 478.433594 "/>
</g>
<mask id="mask2">
  <g filter="url(#alpha)">
<rect x="0" y="0" width="507" height="507" style="fill:rgb(0%,0%,0%);fill-opacity:0.2;stroke:none;"/>
  </g>
</mask>
<clipPath id="clip3">
  <rect width="507" height="507"/>
</clipPath>
<g id="surface12" clip-path="url(#clip3)">
<path style=" stroke:none;fill-rule:nonzero;fill:rgb(0%,0%,0%);fill-opacity:1;" d="M 449.871094 131.984375 C 449.871094 144.449219 439.765625 154.550781 427.304688 154.550781 C 414.839844 154.550781 404.738281 144.449219 404.738281 131.984375 C 404.738281 119.523438 414.839844 109.417969 427.304688 109.417969 C 439.765625 109.417969 449.871094 119.523438 449.871094 131.984375 Z M 449.871094 131.984375 "/>
</g>
<mask id="mask3">
  <g filter="url(#alpha)">
<rect x="0" y="0" width="507" height="507" style="fill:rgb(0%,0%,0%);fill-opacity:0.2;stroke:none;"/>
  </g>
</mask>
<clipPath id="clip4">
  <rect width="507" height="507"/>
</clipPath>
<g id="surface15" clip-path="url(#clip4)">
<path style=" stroke:none;fill-rule:nonzero;fill:rgb(0%,0%,0%);fill-opacity:1;" d="M 442.601562 326.242188 C 442.601562 338.707031 432.5 348.808594 420.035156 348.808594 C 407.574219 348.808594 397.46875 338.707031 397.46875 326.242188 C 397.46875 313.78125 407.574219 303.675781 420.035156 303.675781 C 432.5 303.675781 442.601562 313.78125 442.601562 326.242188 Z M 442.601562 326.242188 "/>
</g>
<mask id="mask4">
  <g filter="url(#alpha)">
<rect x="0" y="0" width="507" height="507" style="fill:rgb(0%,0%,0%);fill-opacity:0.2;stroke:none;"/>
  </g>
</mask>
<clipPath id="clip5">
  <rect width="507" height="507"/>
</clipPath>
<g id="surface18" clip-path="url(#clip5)">
<path style=" stroke:none;fill-rule:nonzero;fill:rgb(0%,0%,0%);fill-opacity:1;" d="M 337.714844 169.890625 C 342.5 196.890625 331.9375 221.335938 331.9375 221.335938 C 331.9375 221.335938 313.613281 202.007812 308.828125 175.011719 C 304.042969 148.011719 314.605469 123.566406 314.605469 123.566406 C 314.605469 123.566406 332.929688 142.894531 337.714844 169.890625 Z M 337.714844 169.890625 "/>
</g>
<mask id="mask5">
  <g filter="url(#alpha)">
<rect x="0" y="0" width="507" height="507" style="fill:rgb(0%,0%,0%);fill-opacity:0.2;stroke:none;"/>
  </g>
</mask>
<clipPath id="clip6">
  <rect width="507" height="507"/>
</clipPath>
<g id="surface21" clip-path="url(#clip6)">
<path style=" stroke:none;fill-rule:nonzero;fill:rgb(0%,0%,0%);fill-opacity:1;" d="M 412.710938 233.976562 C 386.960938 243.394531 361.085938 237.351562 361.085938 237.351562 C 361.085938 237.351562 376.957031 216.042969 402.710938 206.625 C 428.460938 197.210938 454.335938 203.253906 454.335938 203.253906 C 454.335938 203.253906 438.464844 224.5625 412.710938 233.976562 Z M 412.710938 233.976562 "/>
</g>
<mask id="mask6">
  <g filter="url(#alpha)">
<rect x="0" y="0" width="507" height="507" style="fill:rgb(0%,0%,0%);fill-opacity:0.2;stroke:none;"/>
  </g>
</mask>
<clipPath id="clip7">
  <rect width="507" height="507"/>
</clipPath>
<g id="surface24" clip-path="url(#clip7)">
<path style=" stroke:none;fill-rule:nonzero;fill:rgb(0%,0%,0%);fill-opacity:1;" d="M 417.078125 406 C 399.027344 412.601562 380.867188 408.292969 380.867188 408.292969 C 380.867188 408.292969 391.96875 393.289062 410.015625 386.6875 C 428.066406 380.085938 446.230469 384.394531 446.230469 384.394531 C 446.230469 384.394531 435.128906 399.398438 417.078125 406 Z M 417.078125 406 "/>
</g>
</defs>
<g id="surface1">
<path style=" stroke:none;fill-rule:nonzero;fill:rgb(100%,100%,100%);fill-opacity:1;" d="M 507 253.5 C 507.039062 286.066406 500.789062 318.332031 488.585938 348.523438 C 488.558594 348.59375 488.535156 348.652344 488.503906 348.71875 L 488.503906 348.726562 C 480.304688 368.945312 469.515625 388.015625 456.414062 405.457031 C 453.886719 408.832031 451.277344 412.136719 448.589844 415.371094 C 447.609375 416.558594 446.609375 417.734375 445.613281 418.898438 C 440.476562 424.859375 435.070312 430.574219 429.398438 436.035156 C 428.078125 437.308594 426.742188 438.570312 425.390625 439.816406 C 425.078125 440.109375 424.761719 440.390625 424.449219 440.683594 C 417.839844 446.722656 410.917969 452.40625 403.710938 457.710938 C 398.871094 461.289062 393.90625 464.683594 388.816406 467.902344 C 387.699219 468.613281 386.574219 469.316406 385.441406 470.003906 C 383.476562 471.203125 381.492188 472.375 379.492188 473.519531 C 376.882812 475.019531 374.238281 476.472656 371.566406 477.878906 C 370.484375 478.453125 369.398438 479.011719 368.308594 479.566406 C 366.71875 480.382812 365.121094 481.171875 363.511719 481.941406 C 363.234375 482.078125 362.953125 482.210938 362.675781 482.339844 C 361.628906 482.851562 360.5625 483.34375 359.496094 483.839844 C 345.628906 490.238281 331.203125 495.355469 316.402344 499.132812 C 316.320312 499.15625 316.246094 499.171875 316.164062 499.191406 C 315.195312 499.441406 314.21875 499.679688 313.246094 499.914062 C 312.515625 500.09375 311.78125 500.265625 311.046875 500.429688 C 310.957031 500.460938 310.863281 500.480469 310.769531 500.496094 C 309.261719 500.851562 307.753906 501.1875 306.234375 501.496094 C 305.378906 501.675781 304.523438 501.855469 303.667969 502.027344 C 303.148438 502.140625 302.625 502.238281 302.109375 502.335938 C 301.453125 502.460938 300.808594 502.582031 300.15625 502.710938 C 299.796875 502.785156 299.4375 502.84375 299.070312 502.90625 C 298.246094 503.054688 297.421875 503.203125 296.601562 503.347656 C 295.207031 503.585938 293.796875 503.820312 292.394531 504.03125 C 291.375 504.1875 290.363281 504.335938 289.34375 504.480469 C 288.140625 504.652344 286.941406 504.808594 285.734375 504.960938 C 285.40625 505.011719 285.074219 505.050781 284.746094 505.085938 C 284.316406 505.140625 283.890625 505.191406 283.460938 505.246094 C 282.601562 505.351562 281.738281 505.449219 280.867188 505.539062 C 280.417969 505.589844 279.976562 505.636719 279.523438 505.679688 C 278.671875 505.769531 277.816406 505.851562 276.960938 505.925781 C 275.859375 506.03125 274.753906 506.121094 273.644531 506.210938 C 272.296875 506.316406 270.953125 506.414062 269.59375 506.496094 C 268.726562 506.550781 267.855469 506.601562 266.976562 506.648438 C 264.742188 506.765625 262.507812 506.851562 260.257812 506.910156 C 259.140625 506.941406 258.015625 506.960938 256.890625 506.976562 L 256.867188 506.976562 C 255.75 506.992188 254.625 507 253.5 507 C 242.097656 507.003906 230.710938 506.242188 219.414062 504.71875 C 211.125 503.609375 202.96875 502.105469 194.949219 500.203125 C 194.625 500.128906 194.300781 500.054688 193.988281 499.972656 C 193.175781 499.785156 192.375 499.582031 191.574219 499.378906 C 190.859375 499.199219 190.15625 499.011719 189.441406 498.824219 C 171.078125 494.046875 153.316406 487.207031 136.492188 478.433594 C 136.410156 478.386719 136.320312 478.34375 136.238281 478.296875 C 135.75 478.042969 135.269531 477.796875 134.789062 477.53125 C 133.734375 476.976562 132.679688 476.414062 131.632812 475.835938 C 125.671875 472.558594 119.859375 469.054688 114.203125 465.324219 C 112.746094 464.371094 111.308594 463.402344 109.882812 462.421875 C 109.425781 462.105469 108.976562 461.789062 108.523438 461.476562 C 108.050781 461.144531 107.578125 460.816406 107.113281 460.484375 C 105.878906 459.609375 104.648438 458.71875 103.425781 457.824219 C 98.363281 454.101562 93.449219 450.199219 88.6875 446.113281 C 71.808594 431.65625 56.890625 415.054688 44.316406 396.726562 C 39.929688 390.335938 35.835938 383.742188 32.03125 376.941406 C 10.960938 339.21875 -0.0703125 296.710938 0 253.5 C 0 113.496094 113.496094 0 253.5 0 C 393.503906 0 507 113.496094 507 253.5 Z M 507 253.5 "/>
<use xlink:href="#surface6" mask="url(#mask0)"/>
<use xlink:href="#surface9" mask="url(#mask1)"/>
<use xlink:href="#surface12" mask="url(#mask2)"/>
<use xlink:href="#surface15" mask="url(#mask3)"/>
<use xlink:href="#surface18" mask="url(#mask4)"/>
<use xlink:href="#surface21" mask="url(#mask5)"/>
<use xlink:href="#surface24" mask="url(#mask6)"/>
<path style=" stroke:none;fill-rule:nonzero;fill:rgb(18.431373%,18.039216%,25.490196%);fill-opacity:1;" d="M 329.96875 402.203125 L 330.886719 402.675781 C 330.796875 403.648438 330.578125 404.25 329.96875 402.203125 Z M 329.96875 402.203125 "/>
<path style=" stroke:none;fill-rule:nonzero;fill:rgb(18.431373%,18.039216%,25.490196%);fill-opacity:1;" d="M 331.175781 402.515625 C 331.183594 402.621094 331.199219 402.734375 331.207031 402.839844 L 330.886719 402.675781 C 330.890625 402.578125 330.898438 402.472656 330.914062 402.367188 C 330.988281 401.054688 330.898438 399.503906 331.175781 402.515625 Z M 331.175781 402.515625 "/>
<path style=" stroke:none;fill-rule:nonzero;fill:rgb(18.431373%,18.039216%,25.490196%);fill-opacity:1;" d="M 356.917969 243.480469 C 356.917969 311.5 301.78125 366.636719 233.761719 366.636719 C 165.746094 366.636719 110.605469 311.5 110.605469 243.480469 C 110.605469 175.464844 165.746094 120.324219 233.761719 120.324219 C 301.78125 120.324219 356.917969 175.464844 356.917969 243.480469 Z M 356.917969 243.480469 "/>
<path style=" stroke:none;fill-rule:nonzero;fill:rgb(81.568627%,80.392157%,88.235294%);fill-opacity:1;" d="M 318.484375 287.035156 C 318.484375 328.226562 285.089844 361.617188 243.898438 361.617188 C 202.710938 361.617188 169.316406 328.226562 169.316406 287.035156 C 169.316406 245.84375 202.710938 212.453125 243.898438 212.453125 C 285.089844 212.453125 318.484375 245.84375 318.484375 287.035156 Z M 318.484375 287.035156 "/>
<path style=" stroke:none;fill-rule:nonzero;fill:rgb(81.568627%,80.392157%,88.235294%);fill-opacity:1;" d="M 414.203125 429.984375 L 414.113281 430.003906 L 396.765625 434.167969 L 360.644531 442.835938 L 355.71875 444.023438 L 300.789062 457.199219 L 296.121094 458.324219 L 162.855469 490.304688 C 153.847656 486.859375 145.042969 482.894531 136.492188 478.433594 C 136.410156 478.386719 136.320312 478.34375 136.238281 478.296875 C 135.75 478.042969 135.269531 477.796875 134.789062 477.53125 C 133.734375 476.976562 132.679688 476.414062 131.632812 475.835938 C 125.671875 472.558594 119.859375 469.054688 114.203125 465.324219 C 112.746094 464.371094 111.308594 463.402344 109.882812 462.421875 C 109.425781 462.105469 108.976562 461.789062 108.523438 461.476562 C 108.050781 461.144531 107.578125 460.816406 107.113281 460.484375 C 105.878906 459.609375 104.648438 458.71875 103.425781 457.824219 C 116.371094 434.296875 147.195312 418.65625 178.019531 410.101562 C 201.285156 403.636719 206.398438 382.386719 205.957031 363.480469 C 205.84375 359.167969 205.480469 354.863281 204.863281 350.59375 C 203.921875 343.800781 202.425781 337.089844 200.390625 330.539062 L 274.980469 333.03125 L 282.675781 350.761719 C 282.464844 352.707031 282.398438 354.667969 282.472656 356.625 C 283.058594 371.167969 292.035156 380.574219 303.113281 386.640625 C 304.550781 387.425781 306.03125 388.164062 307.53125 388.84375 C 325.695312 397.101562 347.078125 397.664062 347.078125 397.664062 C 353.589844 396.945312 360.164062 397.070312 366.644531 398.03125 C 368.21875 398.273438 369.75 398.558594 371.234375 398.894531 C 379.90625 400.832031 388.097656 404.5 395.316406 409.671875 C 398.074219 411.632812 400.683594 413.796875 403.125 416.144531 C 407.460938 420.203125 411.191406 424.863281 414.203125 429.984375 Z M 414.203125 429.984375 "/>
<path style=" stroke:none;fill-rule:nonzero;fill:rgb(81.568627%,80.392157%,88.235294%);fill-opacity:1;" d="M 425.390625 439.816406 C 425.078125 440.109375 424.761719 440.390625 424.449219 440.683594 C 417.839844 446.722656 410.917969 452.40625 403.710938 457.710938 C 398.871094 461.289062 393.90625 464.683594 388.816406 467.902344 C 387.699219 468.613281 386.574219 469.316406 385.441406 470.003906 C 383.476562 471.203125 381.492188 472.375 379.492188 473.519531 C 376.882812 475.019531 374.238281 476.472656 371.566406 477.878906 C 370.484375 478.453125 369.398438 479.011719 368.308594 479.566406 C 366.71875 480.382812 365.121094 481.171875 363.511719 481.941406 C 363.234375 482.078125 362.953125 482.210938 362.675781 482.339844 L 359.503906 479.707031 L 396.765625 434.167969 L 404.257812 425.011719 C 404.257812 425.011719 407.25 425.011719 414.113281 430.003906 C 417.90625 432.828125 421.488281 435.921875 424.835938 439.261719 C 425.015625 439.449219 425.203125 439.628906 425.390625 439.816406 Z M 425.390625 439.816406 "/>
<path style=" stroke:none;fill-rule:nonzero;fill:rgb(18.431373%,18.039216%,25.490196%);fill-opacity:1;" d="M 424.867188 439.304688 C 424.765625 439.777344 424.625 440.238281 424.449219 440.683594 C 417.839844 446.722656 410.917969 452.40625 403.710938 457.710938 C 397.457031 459.964844 390.96875 461.507812 384.367188 462.308594 C 384.367188 462.308594 384.929688 465.128906 385.441406 470.003906 C 383.476562 471.203125 381.492188 472.375 379.492188 473.519531 C 376.882812 475.019531 374.238281 476.472656 371.566406 477.878906 C 370.484375 478.453125 369.398438 479.011719 368.308594 479.566406 C 366.71875 480.382812 365.121094 481.171875 363.511719 481.941406 C 363.234375 482.078125 362.953125 482.210938 362.675781 482.339844 C 361.628906 482.851562 360.5625 483.34375 359.496094 483.839844 C 345.628906 490.238281 331.203125 495.355469 316.402344 499.132812 C 316.320312 499.15625 316.246094 499.171875 316.164062 499.191406 C 315.195312 499.441406 314.21875 499.679688 313.246094 499.914062 C 312.515625 500.09375 311.78125 500.265625 311.046875 500.429688 C 310.957031 500.460938 310.863281 500.480469 310.769531 500.496094 C 309.261719 500.851562 307.753906 501.1875 306.234375 501.496094 C 305.378906 501.675781 304.523438 501.855469 303.667969 502.027344 C 303.148438 502.140625 302.625 502.238281 302.109375 502.335938 C 301.453125 502.460938 300.808594 502.582031 300.15625 502.710938 C 299.796875 502.785156 299.4375 502.84375 299.070312 502.90625 C 298.246094 503.054688 297.421875 503.203125 296.601562 503.347656 C 295.207031 503.585938 293.796875 503.820312 292.394531 504.03125 C 291.375 504.1875 290.363281 504.335938 289.34375 504.480469 C 288.140625 504.652344 286.941406 504.808594 285.734375 504.960938 C 285.40625 505.011719 285.074219 505.050781 284.746094 505.085938 C 284.316406 505.140625 283.890625 505.191406 283.460938 505.246094 C 282.601562 505.351562 281.738281 505.449219 280.867188 505.539062 C 280.417969 505.589844 279.976562 505.636719 279.523438 505.679688 C 278.671875 505.769531 277.816406 505.851562 276.960938 505.925781 C 275.859375 506.03125 274.753906 506.121094 273.644531 506.210938 C 272.296875 506.316406 270.953125 506.414062 269.59375 506.496094 C 268.726562 506.550781 267.855469 506.601562 266.976562 506.648438 C 264.742188 506.765625 262.507812 506.851562 260.257812 506.910156 C 259.140625 506.941406 258.015625 506.960938 256.890625 506.976562 L 256.867188 506.976562 C 255.75 506.992188 254.625 507 253.5 507 C 242.097656 507.003906 230.710938 506.242188 219.414062 504.71875 C 211.125 503.609375 202.96875 502.105469 194.949219 500.203125 C 194.625 500.128906 194.300781 500.054688 193.988281 499.972656 C 193.175781 499.785156 192.375 499.582031 191.574219 499.378906 C 190.859375 499.199219 190.15625 499.011719 189.441406 498.824219 C 171.078125 494.046875 153.316406 487.207031 136.492188 478.433594 C 136.410156 478.386719 136.320312 478.34375 136.238281 478.296875 C 135.75 478.042969 135.269531 477.796875 134.789062 477.53125 C 175.957031 467.941406 241.011719 452.8125 297.464844 439.851562 C 299.046875 439.492188 300.621094 439.132812 302.183594 438.773438 C 323.03125 433.988281 342.5625 429.53125 359.085938 425.804688 C 360.796875 425.421875 362.46875 425.046875 364.109375 424.679688 C 381.863281 420.691406 395.648438 417.660156 403.125 416.144531 C 405.140625 415.683594 407.179688 415.328125 409.230469 415.074219 L 424.835938 439.261719 Z M 424.867188 439.304688 "/>
<path style=" stroke:none;fill-rule:nonzero;fill:rgb(18.431373%,18.039216%,25.490196%);fill-opacity:1;" d="M 157.773438 154.386719 C 157.773438 174.648438 141.347656 191.074219 121.085938 191.074219 C 100.828125 191.074219 84.402344 174.648438 84.402344 154.386719 C 84.402344 134.128906 100.828125 117.703125 121.085938 117.703125 C 141.347656 117.703125 157.773438 134.128906 157.773438 154.386719 Z M 157.773438 154.386719 "/>
<path style=" stroke:none;fill-rule:nonzero;fill:rgb(18.431373%,18.039216%,25.490196%);fill-opacity:1;" d="M 383.121094 143.90625 C 383.121094 164.167969 366.699219 180.59375 346.4375 180.59375 C 326.175781 180.59375 309.753906 164.167969 309.753906 143.90625 C 309.753906 123.648438 326.175781 107.222656 346.4375 107.222656 C 366.699219 107.222656 383.121094 123.648438 383.121094 143.90625 Z M 383.121094 143.90625 "/>
<path style=" stroke:none;fill-rule:nonzero;fill:rgb(18.431373%,18.039216%,25.490196%);fill-opacity:1;" d="M 307.132812 128.183594 C 307.132812 109.449219 321.257812 93.722656 339.886719 91.71875 C 325.90625 90.191406 312.285156 96.789062 304.820312 108.703125 C 297.351562 120.617188 297.351562 135.753906 304.820312 147.667969 C 312.285156 159.582031 325.90625 166.179688 339.886719 164.652344 C 321.257812 162.644531 307.132812 146.921875 307.132812 128.183594 Z M 307.132812 128.183594 "/>
<path style=" stroke:none;fill-rule:nonzero;fill:rgb(18.431373%,18.039216%,25.490196%);fill-opacity:1;" d="M 80.097656 184.0625 C 66.984375 170.675781 66.070312 149.5625 77.96875 135.089844 C 66.917969 143.78125 61.804688 158.027344 64.808594 171.765625 C 67.816406 185.503906 78.40625 196.3125 92.078125 199.597656 C 105.753906 202.882812 120.097656 198.0625 129.015625 187.1875 C 114.304688 198.792969 93.210938 197.445312 80.097656 184.0625 Z M 80.097656 184.0625 "/>
<path style=" stroke:none;fill-rule:nonzero;fill:rgb(18.431373%,18.039216%,25.490196%);fill-opacity:1;" d="M 233.761719 185.832031 C 190.347656 185.832031 155.152344 206.363281 155.152344 231.6875 C 155.152344 243.019531 162.226562 253.378906 173.902344 261.378906 L 189.039062 250.414062 L 184.921875 267.589844 C 186.628906 268.382812 188.371094 269.148438 190.191406 269.855469 L 212.800781 243.480469 L 212.800781 275.882812 C 219.730469 276.996094 226.742188 277.550781 233.761719 277.546875 C 277.175781 277.546875 312.371094 257.015625 312.371094 231.6875 C 312.371094 206.363281 277.175781 185.832031 233.761719 185.832031 Z M 233.761719 185.832031 "/>
<path style=" stroke:none;fill-rule:nonzero;fill:rgb(18.431373%,18.039216%,25.490196%);fill-opacity:1;" d="M 309.753906 143.90625 C 309.753906 143.90625 304.054688 170.109375 339.660156 180.59375 Z M 309.753906 143.90625 "/>
<path style=" stroke:none;fill-rule:nonzero;fill:rgb(18.431373%,18.039216%,25.490196%);fill-opacity:1;" d="M 155.152344 148.675781 C 155.152344 148.675781 168.253906 177.972656 128.949219 191.074219 Z M 155.152344 148.675781 "/>
<path style=" stroke:none;fill-rule:nonzero;fill:rgb(81.568627%,80.392157%,88.235294%);fill-opacity:1;" d="M 176.546875 300.277344 C 174.324219 292.34375 169.84375 286.660156 166.539062 287.585938 C 163.234375 288.511719 162.355469 295.695312 164.574219 303.625 C 166.796875 311.558594 171.277344 317.242188 174.582031 316.316406 C 177.886719 315.390625 178.765625 308.207031 176.546875 300.277344 Z M 176.546875 300.277344 "/>
<path style=" stroke:none;fill-rule:nonzero;fill:rgb(81.568627%,80.392157%,88.235294%);fill-opacity:1;" d="M 320.644531 274.632812 C 317.21875 274.421875 314.03125 280.914062 313.523438 289.136719 C 313.015625 297.359375 315.382812 304.199219 318.808594 304.410156 C 322.234375 304.621094 325.421875 298.125 325.929688 289.902344 C 326.4375 281.679688 324.070312 274.84375 320.644531 274.632812 Z M 320.644531 274.632812 "/>
</g>
</svg>
