<?xml version="1.0" encoding="UTF-8"?>
<svg width="44px" height="44px" viewBox="0 0 44 44" version="1.1" xmlns="http://www.w3.org/2000/svg" xmlns:xlink="http://www.w3.org/1999/xlink">
    <title>9A46A248-4DCC-4183-85BA-E52FF8250FD1</title>
    <g id="SVD-+-SAD-+-SP" stroke="none" stroke-width="1" fill="none" fill-rule="evenodd">
        <g id="SVD-195" transform="translate(-1055.000000, -161.000000)">
            <g id="Group-Copy" transform="translate(1039.000000, 140.000000)">
                <g id="Group-3" transform="translate(18.000000, 23.000000)">
                    <circle id="Oval" stroke="#F6C8B0" stroke-width="2.55" stroke-linejoin="bevel" cx="20" cy="20" r="20"></circle>
                    <path d="M19.752,13.168 C20.28,13.168 20.708,13.024 21.036,12.736 C21.364,12.448 21.528,12.072 21.528,11.608 C21.528,11.144 21.364,10.76 21.036,10.456 C20.708,10.152 20.28,10 19.752,10 C19.224,10 18.8,10.152 18.48,10.456 C18.16,10.76 18,11.144 18,11.608 C18,12.072 18.16,12.448 18.48,12.736 C18.8,13.024 19.224,13.168 19.752,13.168 Z M21.12,28.672 L21.12,15.448 L18.384,15.448 L18.384,28.672 L21.12,28.672 Z" id="i" fill="#F6C8B0" fill-rule="nonzero"></path>
                </g>
            </g>
        </g>
    </g>
</svg>